<svg width="38" height="60" viewBox="0 0 38 60" fill="none" xmlns="http://www.w3.org/2000/svg">
<path d="M32.4324 32.4165C35.9399 28.909 37.8769 24.2366 37.8769 19.2763C37.8769 14.3094 35.9465 9.64363 32.4324 6.13608C28.9248 2.62853 24.2525 0.691528 19.2922 0.691528C14.3319 0.691528 9.6595 2.62199 6.15195 6.13608C2.6444 9.65017 0.707397 14.3094 0.707397 19.2763C0.707397 23.4513 2.07508 27.4169 4.59449 30.6562C5.0722 31.2713 5.58917 31.8537 6.1454 32.4165C6.70164 32.9727 7.29059 33.4897 7.89918 33.9674C10.4906 35.9829 13.5466 37.2656 16.8055 37.6975V44.6667H9.34539C9.05745 44.6667 8.82187 44.9023 8.82187 45.1903V49.1166C8.82187 49.4045 9.05745 49.6401 9.34539 49.6401H16.8055V58.8016C16.8055 59.0896 17.041 59.3251 17.329 59.3251H21.2553C21.5433 59.3251 21.7789 59.0896 21.7789 58.8016V49.6401H29.2389C29.5269 49.6401 29.7624 49.4045 29.7624 49.1166V45.1903C29.7624 44.9023 29.5269 44.6667 29.2389 44.6667H21.7789V37.6975C25.8034 37.1609 29.5138 35.3351 32.4324 32.4165ZM19.2922 32.8877C15.6537 32.8877 12.2443 31.4742 9.66604 28.9024C7.09427 26.3306 5.68078 22.9147 5.68078 19.2763C5.68078 15.6379 7.09427 12.2285 9.66604 9.65017C12.2378 7.07186 15.6537 5.66492 19.2922 5.66492C22.9306 5.66492 26.34 7.0784 28.9183 9.65017C31.49 12.2219 32.9035 15.6379 32.9035 19.2763C32.9035 22.9147 31.49 26.3241 28.9183 28.9024C26.34 31.4742 22.9306 32.8877 19.2922 32.8877Z" fill="white"/>
</svg>
