<svg width="58" height="54" viewBox="0 0 58 54" fill="none" xmlns="http://www.w3.org/2000/svg">
<path d="M55.2107 0.445312H36.9174C36.6778 0.445312 36.4818 0.628667 36.4818 0.852767V4.65567C36.4818 4.87977 36.6778 5.06313 36.9174 5.06313H48.5612L34.0935 18.5974C30.4639 15.9829 26.0357 14.5704 21.3826 14.5704C15.8002 14.5704 10.5445 16.6077 6.60275 20.3019C2.66098 23.9962 0.475952 28.906 0.475952 34.1282C0.475952 39.3504 2.65372 44.267 6.60275 47.9545C10.5445 51.6487 15.8002 53.686 21.3826 53.686C26.9649 53.686 32.2206 51.6487 36.1624 47.9545C40.1114 44.267 42.2892 39.3504 42.2892 34.1282C42.2892 29.7752 40.7793 25.6464 37.9917 22.2509L52.4521 8.72343V19.5957C52.4521 19.8198 52.6481 20.0031 52.8877 20.0031H56.9529C57.1924 20.0031 57.3884 19.8198 57.3884 19.5957V2.48258C57.3884 1.36208 56.4084 0.445312 55.2107 0.445312ZM21.3826 48.5249C12.8965 48.5249 5.99298 42.0668 5.99298 34.1282C5.99298 26.1896 12.8965 19.7315 21.3826 19.7315C29.8686 19.7315 36.7722 26.1896 36.7722 34.1282C36.7722 42.0668 29.8686 48.5249 21.3826 48.5249Z" fill="white"/>
</svg>
